<svg viewBox="0 0 18 20" xmlns="http://www.w3.org/2000/svg">
	<path d="M18 2.06465V17.2054C18 18.3453 17.1362 19.2701 16.0714 19.2701H12.6442V11.6481H15.079L15.4286 8.74037H12.6442V6.88218C12.6442 6.03911 12.8612 5.46703 13.9902 5.46703H15.4286V2.86901C15.1795 2.8346 14.3277 2.75287 13.3312 2.75287C11.258 2.75287 9.83571 4.1078 9.83571 6.59829V8.74467H7.39286V11.6524H9.83973V19.2701H1.92857C0.863839 19.2701 0 18.3453 0 17.2054V2.06465C0 0.924793 0.863839 0 1.92857 0H16.0714C17.1362 0 18 0.924793 18 2.06465Z" fill="#fff"/>
</svg>
