<svg viewBox="0 0 18 19" xmlns="http://www.w3.org/2000/svg">
    <path d="M9.00201 4.38788C6.44808 4.38788 4.38806 6.44969 4.38806 9.00586C4.38806 11.562 6.44808 13.6238 9.00201 13.6238C11.5559 13.6238 13.616 11.562 13.616 9.00586C13.616 6.44969 11.5559 4.38788 9.00201 4.38788ZM9.00201 12.0081C7.35159 12.0081 6.00234 10.6617 6.00234 9.00586C6.00234 7.34998 7.34757 6.00357 9.00201 6.00357C10.6564 6.00357 12.0017 7.34998 12.0017 9.00586C12.0017 10.6617 10.6524 12.0081 9.00201 12.0081ZM14.8809 4.19898C14.8809 4.79783 14.399 5.27611 13.8047 5.27611C13.2064 5.27611 12.7285 4.79381 12.7285 4.19898C12.7285 3.60415 13.2104 3.12186 13.8047 3.12186C14.399 3.12186 14.8809 3.60415 14.8809 4.19898ZM17.9368 5.29219C17.8685 3.84932 17.5392 2.57124 16.4831 1.51823C15.431 0.465214 14.154 0.135646 12.7124 0.0633013C11.2267 -0.0211004 6.77334 -0.0211004 5.28756 0.0633013C3.84997 0.131626 2.57301 0.461195 1.5169 1.51421C0.460792 2.56722 0.135527 3.8453 0.063246 5.28817C-0.021082 6.77524 -0.021082 11.2325 0.063246 12.7195C0.131511 14.1624 0.460792 15.4405 1.5169 16.4935C2.57301 17.5465 3.84596 17.8761 5.28756 17.9484C6.77334 18.0328 11.2267 18.0328 12.7124 17.9484C14.154 17.8801 15.431 17.5505 16.4831 16.4935C17.5352 15.4405 17.8645 14.1624 17.9368 12.7195C18.0211 11.2325 18.0211 6.77926 17.9368 5.29219ZM16.0173 14.3151C15.7041 15.1029 15.0977 15.7098 14.3066 16.0273C13.122 16.4975 10.3111 16.389 9.00201 16.389C7.69292 16.389 4.87797 16.4935 3.69738 16.0273C2.91032 15.7138 2.30396 15.1069 1.98673 14.3151C1.5169 13.1295 1.62532 10.3161 1.62532 9.00586C1.62532 7.69562 1.52091 4.87822 1.98673 3.69659C2.29994 2.90884 2.9063 2.30195 3.69738 1.98444C4.88199 1.51421 7.69292 1.62272 9.00201 1.62272C10.3111 1.62272 13.126 1.51823 14.3066 1.98444C15.0937 2.29794 15.7001 2.90482 16.0173 3.69659C16.4871 4.88224 16.3787 7.69562 16.3787 9.00586C16.3787 10.3161 16.4871 13.1335 16.0173 14.3151Z" fill="#fff"/>
</svg>
