<svg width="261" height="261" viewBox="0 0 261 261" fill="none" xmlns="http://www.w3.org/2000/svg">
<path d="M34.703 0.183014C15.582 0.183014 0.014 15.748 0 34.884C0 54.02 15.568 69.588 34.703 69.588C53.831 69.588 69.391 54.02 69.391 34.884C69.391 15.75 53.83 0.183014 34.703 0.183014Z" fill="white"/>
<path d="M60.748 83.531H8.65402C6.17602 83.531 4.16602 85.54 4.16602 88.02V255.695C4.16602 258.174 6.17602 260.183 8.65402 260.183H60.747C63.226 260.183 65.236 258.173 65.236 255.695V88.02C65.237 85.539 63.227 83.531 60.748 83.531Z" fill="white"/>
<path d="M193.925 81.557C174.861 81.557 158.108 87.362 147.885 96.828V88.02C147.885 85.54 145.875 83.531 143.396 83.531H93.4246C90.9456 83.531 88.9355 85.54 88.9355 88.02V255.695C88.9355 258.174 90.9456 260.183 93.4246 260.183H145.469C147.948 260.183 149.958 258.173 149.958 255.695V172.738C149.958 148.936 154.336 134.183 176.185 134.183C197.711 134.209 199.322 150.029 199.322 174.16V255.695C199.322 258.174 201.332 260.183 203.812 260.183H255.88C258.358 260.183 260.368 258.173 260.368 255.695V163.718C260.367 125.465 252.815 81.557 193.925 81.557Z" fill="white"/>
</svg>
