<svg viewBox="0 0 19 19" xmlns="http://www.w3.org/2000/svg">
	<path d="M19 9.5C19 14.748 14.748 19 9.5 19C8.51935 19 7.57702 18.8506 6.68831 18.5748C7.0752 17.9427 7.65363 16.9085 7.86814 16.0849C7.98306 15.6405 8.45807 13.8248 8.45807 13.8248C8.76835 14.4147 9.67238 14.9165 10.6339 14.9165C13.4992 14.9165 15.5639 12.281 15.5639 9.00585C15.5639 5.86855 13.0012 3.52036 9.70685 3.52036C5.60806 3.52036 3.42843 6.27077 3.42843 9.27016C3.42843 10.6645 4.17157 12.3998 5.35524 12.9514C5.53528 13.0357 5.63105 12.9974 5.67319 12.825C5.70383 12.6948 5.86472 12.0474 5.9375 11.7486C5.96048 11.6528 5.94899 11.5685 5.87238 11.4766C5.48548 10.9978 5.17137 10.1244 5.17137 9.30847C5.17137 7.2131 6.75726 5.18669 9.46169 5.18669C11.7946 5.18669 13.4302 6.77641 13.4302 9.05182C13.4302 11.6222 12.1317 13.4034 10.4423 13.4034C9.51149 13.4034 8.81048 12.6335 9.03649 11.6873C9.30464 10.5573 9.82177 9.33911 9.82177 8.52319C9.82177 7.79536 9.43105 7.18629 8.61895 7.18629C7.66512 7.18629 6.89899 8.17077 6.89899 9.49234C6.89899 10.3351 7.18246 10.902 7.18246 10.902C7.18246 10.902 6.24395 14.8782 6.07157 15.6214C5.88004 16.4411 5.95665 17.598 6.0371 18.3488C2.50524 16.9659 0 13.526 0 9.5C0 4.25202 4.25202 0 9.5 0C14.748 0 19 4.25202 19 9.5Z" fill="#fff"/>
</svg>
