<svg viewBox="0 0 11 20" xmlns="http://www.w3.org/2000/svg">
	<path d="M10.9175 18.077C10.4256 18.6227 9.10933 19.2701 7.39523 19.2701C3.0268 19.2701 2.07934 15.9279 2.07934 13.9784V8.55863H0.361625C0.162731 8.55863 3.44872e-09 8.38927 3.44872e-09 8.18227V5.62296C3.44872e-09 5.35197 0.162731 5.11109 0.408636 5.02076C2.65071 4.20028 3.35588 2.16036 3.45713 0.613482C3.48606 0.199476 3.69219 0 4.03935 0H6.60327C6.80217 0 6.9649 0.169366 6.9649 0.376369V4.71214H9.96638C10.1653 4.71214 10.328 4.87774 10.328 5.08475V8.15968C10.328 8.36669 10.1653 8.53605 9.96638 8.53605H6.95043V13.5493C6.95043 14.8365 7.80748 15.5666 9.40948 14.8967C9.58306 14.8252 9.73494 14.7763 9.86874 14.8139C9.99531 14.8478 10.0785 14.9419 10.1363 15.1112L10.9319 17.5313C10.997 17.7195 11.0513 17.9302 10.9175 18.077Z" fill="#fff"/>
</svg>
