<svg viewBox="0 0 19 17" xmlns="http://www.w3.org/2000/svg">
    <path d="M17.047 4.79506C17.0591 4.97067 17.0591 5.14632 17.0591 5.32193C17.0591 10.6783 13.1409 16.8501 5.97972 16.8501C3.77348 16.8501 1.724 16.1852 0 15.0312C0.313464 15.0688 0.614831 15.0814 0.940355 15.0814C2.76076 15.0814 4.43655 14.4416 5.77476 13.3503C4.06282 13.3126 2.62817 12.146 2.13387 10.5403C2.37501 10.5779 2.61611 10.603 2.86931 10.603C3.21892 10.603 3.56856 10.5528 3.89405 10.4651C2.10979 10.0887 0.771544 8.45799 0.771544 6.48854V6.43838C1.28993 6.73945 1.89277 6.92761 2.53169 6.95267C1.48282 6.22508 0.795665 4.98322 0.795665 3.57825C0.795665 2.82561 0.988523 2.13568 1.32611 1.53355C3.243 3.99222 6.12437 5.59786 9.35531 5.77351C9.29504 5.47244 9.25886 5.15887 9.25886 4.84526C9.25886 2.61235 10.9949 0.793457 13.1529 0.793457C14.2741 0.793457 15.2868 1.28268 15.9981 2.07297C16.8782 1.89736 17.7221 1.55865 18.4696 1.09452C18.1802 2.03536 17.5653 2.82565 16.7576 3.32738C17.5413 3.23962 18.3008 3.01377 19 2.7002C18.4696 3.503 17.8065 4.21799 17.047 4.79506Z" fill="#fff"/>
</svg>
