<svg viewBox="0 0 18 15" xmlns="http://www.w3.org/2000/svg">
    <path d="M17.6239 2.97092C17.4169 2.11382 16.8069 1.4388 16.0325 1.20972C14.6288 0.793457 9 0.793457 9 0.793457C9 0.793457 3.37127 0.793457 1.96752 1.20972C1.19308 1.43884 0.583143 2.11382 0.376127 2.97092C0 4.52447 -1.28243e-08 7.76579 -1.28243e-08 7.76579C-1.28243e-08 7.76579 0 11.0071 0.376127 12.5606C0.583143 13.4177 1.19308 14.0646 1.96752 14.2937C3.37127 14.71 9 14.71 9 14.71C9 14.71 14.6287 14.71 16.0325 14.2937C16.8069 14.0646 17.4169 13.4177 17.6239 12.5606C18 11.0071 18 7.76579 18 7.76579C18 7.76579 18 4.52447 17.6239 2.97092ZM7.15908 10.7087V4.82291L11.8636 7.76586L7.15908 10.7087Z" fill="#fff"/>
</svg>
